<svg xmlns="http://www.w3.org/2000/svg" width="32" height="32" class="icon" viewBox="0 0 1024 1024"><path fill="#D5D5ED" d="M944.864 353.644 95.29 355.066a16.256 16.256 0 0 0-16.036 18.718L90.77 448.83l.297 2.109 6.257 46.747 4.424 53.513c8.085 101.256 16.447 205.953 51.989 305.953a16.28 16.28 0 0 0 8.918 9.5L489.2 1006.428a16.2 16.2 0 0 0 12.937-.07l299.835-131.763 42.835-18.71 40.105-17.227c4.798-2.064 8.398-6.602 9.544-11.697l6.96-31.28c28.33-79.26 33.843-164.788 39.15-247.513l4.067-58.746c1.673-16.76 3.823-32.182 5.903-46.3l10.442-70.854a16.256 16.256 0 0 0-16.114-18.624"/><path fill="#6E6E96" d="M944.893 337.396h-.057L95.26 338.818a32.507 32.507 0 0 0-32.073 37.432l11.486 74.814.341 2.446c1.942 13.826 4.144 29.477 6.135 45.777 1.556 17.637 3.003 35.73 4.4 53.224 8.17 102.313 16.617 208.09 52.875 310.09a32.5 32.5 0 0 0 17.836 18.998l326.54 139.78a32.45 32.45 0 0 0 25.869-.134l299.835-131.764c15.345-6.748 30.175-13.261 42.733-18.681 24.333-10.483 39.898-17.146 40.049-17.199a32.5 32.5 0 0 0 19.075-23.398c.024-.105 2.312-11.34 6.545-29.513 28.957-81.278 34.49-167.81 39.853-251.518 1.235-19.181 2.495-39.017 4.03-58.234 1.667-16.593 3.78-31.642 5.803-45.444v.004c6.277-42.522 10.45-70.87 10.45-70.87a32.56 32.56 0 0 0-7.57-25.998 32.5 32.5 0 0 0-24.58-11.234M95.317 371.322 944.89 369.9s-4.173 28.347-10.442 70.865c-2.1 14.224-4.31 30.086-6.03 47.37-8.125 101.877-8.125 207.513-42.725 303.369-4.68 20.002-7.183 32.223-7.183 32.223s-15.476 6.618-40.154 17.247c-12.335 5.33-26.868 11.71-42.929 18.758l-299.83 131.773-326.54-139.793c-41.036-115.435-45.1-237.323-55.57-355.752-2.169-17.837-4.538-34.54-6.65-49.576zM74.71 451.316l-.036-.24c.016.078.024.16.036.24m886.044 40.057.025-.22z"/><path fill="#EDEDF7" d="M499.658 991.497V370.65l445.23-.751-4.956 33.596-5.501 37.326c-1.959 128.875-14.147 254.826-56.406 382.608z"/><path fill="#FF3F84" d="M974.105 233.768 488.189 404.073 62.493 278.188a16.252 16.252 0 0 0-20.859 15.84l2.856 180.297a16.25 16.25 0 0 0 10.666 15.004l427.918 156.662a16.26 16.26 0 0 0 11.957-.309l492.6-209.939a16.26 16.26 0 0 0 9.88-15.118l-1.78-171.678a16.25 16.25 0 0 0-6.918-13.136 16.23 16.23 0 0 0-14.708-2.043"/><path fill="#6E6E96" d="M979.472 216.602c-3.624 0-7.244.601-10.75 1.828L487.758 387 67.101 262.602a32.503 32.503 0 0 0-41.718 31.687l2.856 180.296a32.495 32.495 0 0 0 21.326 30.004l427.918 156.662a32.43 32.43 0 0 0 23.918-.626l492.604-209.942a32.48 32.48 0 0 0 19.754-30.237l-1.78-171.682a32.5 32.5 0 0 0-13.83-26.275 32.6 32.6 0 0 0-18.677-5.887M488.607 421.145l490.865-172.04 1.78 171.683-492.6 209.942L60.738 474.07l-2.856-180.296z"/><path fill="#FF87B2" d="M533.316 117.122 52.714 278.362a16.26 16.26 0 0 0 .56 30.996L484 436.73a16.24 16.24 0 0 0 9.983-.247l490.868-172.04a16.252 16.252 0 0 0-1.23-31.049L542.64 116.817a16.24 16.24 0 0 0-9.324.305"/><path fill="#6E6E96" d="M538.48 100.029c-3.49 0-6.985.565-10.332 1.686L47.542 262.955a32.511 32.511 0 0 0 1.121 61.989l430.726 127.372a32.5 32.5 0 0 0 19.969-.496l490.869-172.04a32.511 32.511 0 0 0-2.43-62.097l-441-116.573a32.5 32.5 0 0 0-8.317-1.081M57.882 293.773l480.606-161.24L979.48 249.104l-490.869 172.04z"/><path fill="#EB598E" d="m979.155 248.776-1.958 172.008L488.66 630.73 60.742 474.07l-2.856-180.296L488.61 421.14z"/><path fill="#EB598E" d="m488.611 421.141.05 209.59-427.92-156.663-2.856-180.296z"/><path fill="#FF85B0" d="m172.712 340.143 286.435 79.227 29.513 195.109L511.965 421.4l467.19-172.625z"/><path fill="#FFD147" d="M208.23 316.57a16.26 16.26 0 0 0-6.988 11.713c-.273 2.572-26.32 261.144 39.637 587.416a16.25 16.25 0 0 0 8.813 11.392l56.336 27.445a16.28 16.28 0 0 0 17.568-2.157 16.26 16.26 0 0 0 5.172-16.926c-130.541-455.534-12.526-567.74-11.319-568.82a16.43 16.43 0 0 0 5.07-15.922c-1.365-5.794-5.708-10.458-11.453-12.023l-89.384-24.377a16.24 16.24 0 0 0-13.452 2.259"/><path fill="#6E6E96" d="M217.408 297.482a32.524 32.524 0 0 0-32.329 29.103c-.284 2.681-6.89 66.871-5.306 172.284a2306 2306 0 0 0 10.588 187.527c7.626 78.48 19.262 156.711 34.592 232.52a32.46 32.46 0 0 0 17.62 22.77l56.337 27.453a32.52 32.52 0 0 0 35.132-4.32 32.5 32.5 0 0 0 10.348-33.852c-29.31-102.283-48.3-195.19-56.434-276.148-6.484-64.498-6.127-121.48 1.06-169.374 6.31-42.035 16.797-68.976 24.484-84.172 7.67-15.154 14.082-21.821 14.882-22.618a32.511 32.511 0 0 0-13.038-55.654l-89.384-24.377a32.7 32.7 0 0 0-8.552-1.142m-5.375 169.172c.008-85.679 5.37-136.668 5.37-136.668l89.385 24.377s-55.991 47.244-55.946 214.213c.024 87.458 15.422 207.777 62.3 371.346l-56.328-27.449c-36.61-181.072-44.79-339.936-44.781-445.82m116.394-88.04.04-.04zm-.674.59.491-.423z"/><path fill="#FFD147" d="M325.53 225.959c-153.09 7.293-226.422 88.644-260.985 155.61-37.078 71.844-38.074 141.177-38.098 144.095a16.252 16.252 0 0 0 21.204 15.613s33.532-10.742 49.629-15.886l74.128 133.463a16.252 16.252 0 0 0 30.46-7.886c0-140.402 47.454-242.617 141.043-303.808 70.37-46.009 142.153-50.722 142.868-50.762a16.27 16.27 0 0 0 15.249-14.798 16.25 16.25 0 0 0-12.392-17.234l-158.547-37.98a16.2 16.2 0 0 0-4.559-.427"/><path fill="#6E6E96" d="M326.306 209.69q-.774 0-1.548.037c-70.284 3.348-130.789 22.058-179.824 55.61-39.683 27.152-71.589 63.75-94.829 108.78-38.837 75.25-39.881 148.34-39.91 151.417a32.536 32.536 0 0 0 42.413 31.231l36.936-11.831L157.2 666.736a32.507 32.507 0 0 0 60.919-15.78c0-75.274 14.39-139.789 42.778-191.762 22.2-40.645 53.155-74.006 92-99.155 34.926-22.614 69.944-34.36 93.168-40.235 24.336-6.155 40.438-7.183 40.596-7.191a32.503 32.503 0 0 0 5.761-64.064l-158.55-37.964a32.5 32.5 0 0 0-7.566-.894M42.7 525.803c.004-.524 2.506-270.216 283.603-283.608l158.551 37.964s-299.237 16.654-299.237 370.798L105.02 505.849z"/><path fill="#FFD147" d="M184.405 45.297C114.145 83.44 74.259 127.73 65.853 176.932c-9.568 56.015 26.117 96.25 27.64 97.936l.272.305.289.288c77.902 77.903 366.08 10.86 398.681 2.962l19.145-4.64-8.191-17.917c-3.397-7.423-84.517-182.254-202.045-221.49-39.893-13.322-79.344-9.645-117.24 10.921"/><path fill="#6E6E96" d="M255.006 10.312h-.016c-26.681.004-53.041 6.972-78.337 20.708-39.093 21.225-69.708 44.753-90.989 69.935-19.413 22.972-31.471 47.646-35.843 73.336-4.514 26.539-.605 54.077 11.303 79.641 8.605 18.466 18.458 29.79 20.347 31.874l.532.589.561.56c28.262 28.27 78.361 42.01 153.168 42.01 49.112 0 107.943-5.85 174.86-17.388 49.563-8.545 84.54-17.008 86.003-17.361l38.26-9.3-16.377-35.807c-1.09-2.377-27.14-58.896-70.638-116.069-26.177-34.405-53.374-62.037-80.844-82.12-36.85-26.945-74.53-40.608-111.99-40.608m-.008 32.503h.52c133.117.553 233.398 219.816 233.398 219.816s-139.212 33.832-253.188 33.832c-55.971 0-105.856-8.155-130.18-32.488 0 0-25.04-27.615-25.068-67.842-.033-38.382 22.703-88.246 111.677-136.546 21.537-11.693 42.571-16.768 62.833-16.772z"/><path fill="#FFD147" d="m812.937 313.913-108.22 16.296a16.25 16.25 0 0 0-12.798 10.592 16.38 16.38 0 0 0 3.178 16.386c1.154 1.308 114.432 135.86-29.936 568.97a16.235 16.235 0 0 0 5.25 17.816 16.25 16.25 0 0 0 18.534 1.267l60.944-36.566a16.2 16.2 0 0 0 7.301-9.613c64.783-234.84 74.331-565.317 74.416-568.628a16.264 16.264 0 0 0-18.669-16.52"/><path fill="#6E6E96" d="M815.347 297.482q-2.416-.002-4.831.362L702.3 314.14c-11.762 1.772-21.35 10.117-25.43 21.29s-1.462 23.971 6.391 32.901l-.5-.56.066.077c.077.077 6.7 7.98 14.435 25.893 7.236 16.751 16.902 45.846 21.9 89.327 5.671 49.413 4.233 106.725-4.275 170.334-10.681 79.95-32.593 169.992-65.132 267.611a32.503 32.503 0 0 0 47.556 38.151l60.944-36.566a32.52 32.52 0 0 0 14.61-19.226c15.15-54.943 28.526-119.303 39.743-191.294 8.914-57.283 16.508-119.56 22.59-185.098 10.304-111.507 12.579-192.732 12.656-196.125a32.52 32.52 0 0 0-10.958-25.218 32.57 32.57 0 0 0-21.55-8.155m-108.204 48.8 108.212-16.296s-8.824 329.094-73.83 564.744l-60.944 36.567c56.807-170.44 74.477-295.61 74.469-385.384-.012-147.764-47.906-199.631-47.906-199.631"/><path fill="#FFD147" d="M679.012 217.857 520.46 255.821a16.24 16.24 0 0 0-12.36 17.548 16.264 16.264 0 0 0 15.841 14.505c.626.012 63.906 1.67 130.107 36.704 87.665 46.394 139.24 126.925 153.298 239.358a16.252 16.252 0 0 0 28.408 8.642l69.91-80.547 50.986 38.24a16.26 16.26 0 0 0 26.002-13.14c-.032-2.92-1.015-72.258-38.098-144.103-34.571-66.965-107.907-148.316-260.985-155.61a16.7 16.7 0 0 0-4.558.44"/><path fill="#6E6E96" d="M682.79 201.163c-2.547 0-5.09.3-7.565.894L516.682 240.02c-15.898 3.807-26.433 18.831-24.686 35.087s15.358 28.684 31.707 29.021l-.094-.004c.15.004 15.553.41 38.61 5.054 20.92 4.214 52.716 12.9 85.362 30.359 35.904 19.2 65.77 45.07 88.77 76.89 29.046 40.19 47.52 90.497 54.91 149.532a32.51 32.51 0 0 0 32.24 28.476 32.5 32.5 0 0 0 24.544-11.201l60.005-69.118 38.87 29.155a32.48 32.48 0 0 0 34.157 3.019 32.5 32.5 0 0 0 17.848-29.281c-.024-3.068-1.068-76.168-39.906-151.417-23.244-45.03-55.137-81.628-94.828-108.78-49.027-33.552-109.54-52.262-179.825-55.61a30 30 0 0 0-1.576-.04M524.243 271.63l158.539-37.964c281.373 13.4 283.611 283.608 283.611 283.608l-63.076-47.317-79.836 91.972C787.747 276.095 524.243 271.63 524.243 271.63"/><path fill="#FFD147" d="M690.246 24.406c-122.932 41.04-207.867 224.09-211.426 231.862l-8.191 17.905 19.128 4.648c34.129 8.297 335.816 78.687 417.383-2.888l.276-.28.26-.297c1.597-1.751 38.765-43.555 28.83-101.98-8.743-51.383-50.444-97.672-123.95-137.574-39.516-21.46-80.678-25.295-122.31-11.396"/><path fill="#6E6E96" d="M738.927 0c-38.947 0-78.154 14.228-116.532 42.287-28.688 20.973-57.104 49.84-84.456 85.8-45.517 59.819-72.767 118.938-73.896 121.425l-16.378 35.806 38.26 9.3c1.532.37 38.172 9.23 90.092 18.19 70.085 12.087 131.695 18.214 183.111 18.214 78.008 0 130.188-14.261 159.522-43.6l.565-.56.54-.59c1.946-2.153 12.14-13.87 21.079-33.03 12.355-26.515 16.406-55.073 11.737-82.588-4.538-26.656-17.068-52.281-37.24-76.155-22.196-26.258-54.147-50.81-94.97-72.974h-.009C794.012 7.24 766.624 0 738.927 0m-245.33 263.033s105.456-230.53 245.322-230.53c21.245 0 43.303 5.327 65.905 17.589 93.313 50.656 117.154 102.946 117.121 143.201-.036 42.185-26.287 71.15-26.287 71.15-25.515 25.519-77.837 34.075-136.534 34.075-119.527 0-265.527-35.485-265.527-35.485"/><path fill="#8F2B00" d="M599.582 285.472s26.75-85.24 93.796-137.79c0 0-90.148 67.693-133.784 129.149z"/><path fill="#FF0" d="M702.325 141.41a588 588 0 0 1 31.528-20.34c30.971-18.583 57.254-26.778 79.385-28.379h.008c-29.155-4.124-64.633-31.727-59.229-59.233-43.44-5.192-83.9 12.615-119.38 40.361 31.174-1.02 66.656 34.462 67.63 67.623z" opacity=".63"/><path fill="#D64000" d="m105.024 505.845 80.596 145.103c0-261.416 163.032-338.925 248.418-361.6-270.809-10.795-329.014 216.497-329.014 216.497m523.953-210.67c77.825 30.87 173.929 102.153 194.504 266.75l79.828-91.976c.008.004-61.578-169.046-274.332-174.774" opacity=".17"/><path fill="#FF0" d="M254.56 96.75c13.277-21.923 44.492-35.51 69.73-34.624-24.9-13.704-51.769-21.326-79.994-18.828-8.247 13.05-18.466 25.589-30.118 35.742-33.604-8.833-67.444-1.625-96.823 35.2 2.348-2.721 20.806-22.122 63.816-15.52-1.337.448-2.674.886-4.027 1.256 5.741.04 11.836.622 18.21 1.694 42.637 11.023 105.153 45.867 193.448 134.162.004-.004-61.854-95.568-134.243-139.082" opacity=".63"/><path fill="#FFF" d="M499.658 683.459s.898 232.825 38.09 291.116l-38.09 16.918-35.323-13.388c0 .004 46.322-189.096 35.323-294.646"/><path fill="#E3AA00" d="M915.936 158.588c3.23 23.552 3.811 44.2 2.223 62.406-7.269 26.645-22.497 43.445-22.497 43.445C818.2 341.91 559.6 276.83 559.6 276.83s63.25-89.165 174.254-155.76c136.497-81.9 182.083 37.517 182.083 37.517"/><path fill="#6E6E96" d="M756.142 318.658c-95.832 0-196.283-25.003-200.513-26.067l-23.029-5.794 13.741-19.368c2.661-3.754 66.522-92.72 179.15-160.294 34.3-20.579 66.567-31.012 95.897-31.012 79.56 0 108.54 73.542 109.735 76.675l.663 1.743.252 1.845c3.274 23.865 4.05 46.077 2.311 66.022l-.126 1.454-.386 1.41c-8.203 30.054-25.41 49.28-26.136 50.084l-.553.577c-28.347 28.35-79.154 42.725-151.006 42.725m-167.746-52.033c35.518 7.39 103.625 19.53 167.746 19.53 61.691 0 105.814-11.356 127.665-32.845 1.56-1.84 12.513-15.252 18.287-35.209 1.316-16.6.65-35.168-1.979-55.24-4.014-9.12-26.502-54.235-78.727-54.235-23.357 0-49.998 8.877-79.174 26.385-75.915 45.537-129.143 102.275-153.818 131.614"/><path fill="#E3AA00" d="M86.212 163.037c-3.083 22.455-3.624 42.144-2.124 59.505 6.939 25.405 21.46 41.425 21.46 41.425 73.872 73.876 320.434 11.82 320.434 11.82S365.68 190.765 259.84 127.262C129.686 49.169 86.212 163.037 86.212 163.037"/><path fill="#6E6E96" d="M238.592 316.424h-.008c-68.724 0-117.35-13.786-144.53-40.967l-.549-.58c-.698-.773-17.222-19.235-25.096-48.057l-.386-1.418-.126-1.466c-1.654-19.133-.906-40.37 2.214-63.114l.252-1.844.662-1.74c1.15-3.006 28.969-73.595 105.343-73.595 28.108 0 59.002 9.987 91.83 29.684C375.723 177.842 436.691 262.8 439.235 266.385l13.736 19.368-23.024 5.793c-4.035 1.016-99.89 24.878-191.355 24.878M117.42 252.855c20.704 20.327 62.577 31.065 121.164 31.065 60.318 0 124.353-11.282 158.522-18.344-23.885-28.229-74.339-81.607-145.626-124.378-27.701-16.621-52.973-25.052-75.107-25.052-49.08 0-70.386 42.247-74.34 51.177-2.478 18.961-3.112 36.546-1.877 52.322 5.424 18.67 15.626 31.268 17.264 33.21"/><path fill="#FFD147" d="M581.908 261.314c0 40.312-41.027 49.153-91.63 49.153s-91.632-8.84-91.632-49.153 41.028-96.84 91.631-96.84c50.608 0 91.631 56.528 91.631 96.84"/><path fill="#6E6E96" d="M490.277 326.719c-26.681 0-107.882 0-107.882-65.405 0-50.908 49.782-113.09 107.882-113.09s107.883 62.182 107.883 113.09c0 65.405-81.202 65.405-107.883 65.405m0-145.993c-29.769 0-75.38 36.103-75.38 80.588 0 10.678 0 32.902 75.38 32.902s75.38-22.224 75.38-32.902c0-44.485-45.615-80.588-75.38-80.588"/><path fill="#FFF" d="M505.248 210.49a23.362 32.503 66.747 1 0-59.726 25.664 23.362 32.503 66.747 1 0 59.726-25.664"/><path fill="#6E6E96" d="M296.155 152.696c-77.5-55.706-173.124-89.49-208.939 6.01-7.833 20.89-18.803 48.161 4.091 83.017 0 0-.101-34.254 42.576-54.053 57.417-26.64 172.523-30.415 282.283 79.34.004-.004-52.68-65.916-120.01-114.314m277.122 118.377c109.764-109.755 224.866-105.98 282.287-79.34 42.681 19.798 42.576 54.053 42.576 54.053 22.898-34.852 11.932-62.126 4.091-83.018-35.806-95.498-131.44-61.715-208.94-6.009-67.33 48.398-120.018 114.31-120.014 114.314" opacity=".25"/></svg>