<svg xmlns="http://www.w3.org/2000/svg" width="34.688" height="32" class="icon" viewBox="0 0 1110 1024"><path fill="#C9C9DB" d="M568.756 50.433c-40.187 15.5-46.116 19.773-45.321 32.64l.336 5.43 172.494 222.453 13.918-10.56c129.148-97.887 232.488-53.402 294.236-26.825 31.35 13.49 56.093 24.147 73.03 7.211 10.365-10.361 15.557-23.06 15.557-37.318 0-12.483-3.981-26.158-11.97-40.518-5.346-9.61-9.796-15.929-13.808-20.082l.084.03C888.12-41.113 658.96 15.638 568.756 50.434"/><path fill="#6E6E96" d="M740.799 0h-.045C619.705.009 528.092 48.816 524.248 50.897l-36.647 19.821 25.53 32.927L671.57 307.978l21.42 27.629 27.863-21.116c27.042-20.497 54.485-35.626 81.575-44.958 22.923-7.896 46.367-11.9 69.702-11.9 40.742.005 75.71 11.895 101.625 22.252 8.364 3.345 16.123 6.685 23.63 9.915 22.565 9.717 40.398 17.387 57.684 17.387 17.351 0 28.547-7.555 34.888-13.896 12.898-12.898 20.025-29.339 20.612-47.539.407-12.561-2.324-25.777-8.112-39.284-7.622-17.767-18.646-31.442-21.668-35.026-49.381-61.603-106.707-107.32-170.435-135.882C857.712 11.96 800.66 0 740.799 0m.008 35.348h.566c94.516.128 207.846 32.644 306.18 151.267.278.35.587.707.861 1.056l.986 1.184a1 1 0 0 0 .062.071l.967 1.189 2.108 2.589c.331.406.658.83.998 1.242 0 0 21.708 24.805 21.74 49.306.013 8.77-2.758 17.506-10.3 25.044-2.47 2.47-5.78 3.543-9.88 3.543-13.967 0-37.195-12.385-68.195-24.779-30.987-12.385-69.746-24.77-114.74-24.774-50.406-.005-108.646 15.535-172.63 64.033L541.096 81.985s86.196-46.628 199.68-46.637zm339.518 135.55c-.071-.07-.11-.132-.16-.185z"/><path fill="#D5D5E8" d="M1075.19 245.32c1.269-25.155-21.668-51.379-21.668-51.379C836.185-77.735 541.074 81.985 541.074 81.985l95.4 123.024.004.005s288.802-188.55 438.712 40.305"/><path fill="#FFF" d="M559.362 73.365c16.896 15.668 37.553 30.766 62.336 44.865 0 0 270.496-130.66 445.544 115.566a329 329 0 0 1 7.948 11.519c1.269-25.15-21.668-51.378-21.668-51.378C868.414-37.46 626.907 44.092 559.362 73.365" opacity=".68"/><path fill="#FFBF00" d="M874.432 595.26c161.73 210.351 127.805 299.548 56.278 354.523-71.513 54.974-153.56 54.952-315.277-155.408-161.726-210.351-234.835-425.461-163.33-480.45 71.526-54.975 260.603 70.984 422.329 281.335"/><path fill="#6E6E96" d="M851.857 998.36c-70.475 0-147.714-59.588-250.436-193.213-79.365-103.225-140.393-211.036-171.848-303.568-33.475-98.475-29.3-170.09 11.757-201.665 14.29-10.984 32.158-16.556 53.115-16.556 97.19 0 255.526 121.014 393.998 301.12 76.965 100.11 115.972 180.382 119.25 245.413 2.709 53.773-18.95 97.57-66.21 133.903-30.67 23.581-59.147 34.565-89.626 34.565M494.445 318.71c-12.981 0-23.599 3.107-31.57 9.23-54.617 42.003.358 239.466 166.569 455.663C722.25 904.325 795 963.01 851.857 963.01c22.279 0 43.911-8.655 68.08-27.235 38.41-29.529 54.587-61.63 52.448-104.1-2.859-56.809-40.535-132.732-111.969-225.64-65.164-84.76-135.913-157.457-204.598-210.24-64.678-49.708-121.986-77.085-161.373-77.085"/><path fill="#FFFF8C" d="M849.242 610.23c125.436 169.533 101.002 230.464 47.644 262.604-53.38 32.136-115.5 23.343-240.914-146.19-125.428-169.533-183.827-333.031-130.47-365.176 53.372-32.149 198.312 79.233 323.74 248.762" opacity=".54"/><path fill="#FFBF00" d="M732.534 378.03a82.312 190.22 53.983 1 0-307.717 223.709 82.312 190.22 53.983 1 0 307.717-223.71"/><path fill="#FFE79E" d="M567.174 500.903a57.493 55.925 90 1 0 111.85 0 57.493 55.925 90 1 0-111.85 0"/><path fill="#6E6E96" d="M471.032 637.735c-34.668 0-52.072-13.927-60.57-25.614-33.518-46.111 13.5-133.434 109.359-203.127 57.7-41.95 119.896-66.99 166.378-66.99 34.672 0 52.072 13.928 60.569 25.615 17.33 23.842 13.808 59.08-9.92 99.226-21.116 35.733-56.433 72.631-99.438 103.897-57.697 41.949-119.891 66.993-166.378 66.993m215.172-260.382c-38.702 0-94.49 23.078-145.594 60.233-86.47 62.862-117.426 131.914-101.555 153.75 6.64 9.129 21.054 11.051 31.977 11.051 38.701 0 94.49-23.082 145.594-60.237 39.187-28.49 71.08-61.62 89.797-93.288 15.641-26.467 20.038-49.063 11.757-60.454-6.64-9.137-21.054-11.055-31.976-11.055"/><path fill="#B2B2B2" d="M392.4 58.05 200.955 205.235c-57.272 44.035-70.934 128.538-30.452 188.374L245.87 504.99c34.16 50.503 96.748 102.085 142.351 100.99 38.675-.933 110.812-33.829 164.231-74.894l127.986-98.391c57.715-44.389 68.58-127.465 24.205-185.193L577.592 82.255C533.21 24.527 450.133 13.666 392.4 58.05"/><path fill="#8C8C8C" d="M472.706 13.145h-.026a149.6 149.6 0 0 0-47.278 7.635 148.6 148.6 0 0 0-43.765 23.26L190.183 191.227c-15.889 12.208-29.078 27.315-39.223 44.905a159.7 159.7 0 0 0-19.344 54.547 159.8 159.8 0 0 0 1.17 57.864 152.4 152.4 0 0 0 23.083 54.97l75.375 111.382c19.053 28.177 44.433 54.68 71.438 74.607 21.116 15.58 52.863 34.163 84.098 34.163.645 0 1.303-.008 1.94-.026l-.071.004c48.532-1.17 126.174-41.34 174.575-78.543l127.977-98.4a148.1 148.1 0 0 0 38.949-44.883 150.2 150.2 0 0 0 18.12-54.436 149.7 149.7 0 0 0-3.517-57.268 148.1 148.1 0 0 0-26.109-53.389L591.6 71.482v-.004a149.7 149.7 0 0 0-53.716-43.549 151.8 151.8 0 0 0-65.177-14.784m-.009 35.348h.2c33.315.057 66.281 14.51 88.678 42.015l.659.818.009.009.623.782.707.91 127.045 165.252a113.67 113.67 0 0 1 23.577 69.445c.022 34.412-15.324 68.491-44.543 90.964l-127.977 98.391c-49.876 38.348-119.123 70.409-153.879 71.235a40 40 0 0 1-1.02.013c-34.858 0-91.362-41.63-126.26-93.234l-75.374-111.386c-13.631-20.149-20.197-43.575-20.255-66.945-.08-37.062 16.26-73.992 46.85-97.512l191.43-147.184a113.7 113.7 0 0 1 69.504-23.573z"/><path fill="#D5D5E8" d="M392.4 58.05 200.955 205.235c-57.272 44.035-70.934 128.538-30.452 188.374L245.87 504.99c34.16 50.503 96.748 102.085 142.351 100.99 38.675-.933 110.812-33.829 164.231-74.894l127.986-98.391c57.715-44.389 68.58-127.465 24.205-185.193L577.592 82.255C533.21 24.527 450.133 13.666 392.4 58.05"/><path fill="#C9C9DB" d="M434.552 174.981s-84.707 82.958-14.01 204.466 33.138 136.974 33.138 136.974l207.67-145.81s86.16-50.813-15.465-192.205c0 0 132.555 148.02 66.277 229.762s-265.11 187.786-265.11 187.786h-62.928s16.534-48.087 16.534-77.324-114.59-195.17 33.894-343.649"/><path fill="#6E6E96" d="M472.706 13.145h-.026a149.6 149.6 0 0 0-47.278 7.635 148.6 148.6 0 0 0-43.765 23.26L190.183 191.227c-15.889 12.208-29.078 27.315-39.223 44.905a159.7 159.7 0 0 0-19.344 54.547 159.8 159.8 0 0 0 1.17 57.864 152.4 152.4 0 0 0 23.083 54.97l75.375 111.382c19.053 28.177 44.433 54.68 71.438 74.607 21.116 15.58 52.863 34.163 84.098 34.163.645 0 1.303-.008 1.94-.026l-.071.004c48.532-1.17 126.174-41.34 174.575-78.543l127.977-98.4a148.1 148.1 0 0 0 38.949-44.883 150.2 150.2 0 0 0 18.12-54.436 149.7 149.7 0 0 0-3.517-57.268 148.1 148.1 0 0 0-26.109-53.389L591.6 71.482v-.004a149.7 149.7 0 0 0-53.716-43.549 151.8 151.8 0 0 0-65.177-14.784m-.009 35.348h.2c33.315.057 66.281 14.51 88.678 42.015l.659.818.009.009.623.782.707.91 127.045 165.252a113.67 113.67 0 0 1 23.577 69.445c.022 34.412-15.324 68.491-44.543 90.964l-127.977 98.391c-49.876 38.348-119.123 70.409-153.879 71.235a40 40 0 0 1-1.02.013c-34.858 0-91.362-41.63-126.26-93.234l-75.374-111.386c-13.631-20.149-20.197-43.575-20.255-66.945-.08-37.062 16.26-73.992 46.85-97.512l191.43-147.184a113.7 113.7 0 0 1 69.504-23.573z"/><path fill="#EEEEFA" d="m275.632 282.271 278.096-200.29c-39.908-39.935-104.656-45.215-150.556-9.924L211.728 219.25c-49.876 38.348-61.842 112.35-26.586 164.457l75.37 111.381c35.255 52.112 92.528 94.057 127.293 93.226 12.367-.292-9.301-4.608 9.371-11.691 28.469-44.309-42.103-184.397-91.03-233.337-53.764-53.76-30.514-61.015-30.514-61.015"/><path fill="#FFF" d="M400.552 460.478S320.75 321.671 180.948 296.251c0 0 61.638 6.372 295.85-158.858-.01 0-194.949 134.216-76.246 323.085"/><path fill="#FFF" d="M848.027 797.689a17.674 17.674 0 0 1-16.994-12.853c-27.642-97.389-127.438-192.709-128.441-193.663a17.674 17.674 0 1 1 24.302-25.663c4.392 4.154 107.882 103.044 138.144 209.68a17.66 17.66 0 0 1-17.011 22.499" opacity=".69"/><path fill="#FFF" d="M284.116 655.237s34.186-51.427 88.18-51.427c0 0 91.3-34.752-32.613-219.374-109.49-163.11-190.888-61.09-190.888-61.09s7.123 10.202-59.495 60.652"/><path fill="#6E6E96" d="M284.098 672.884a17.6 17.6 0 0 1-9.8-2.982 17.643 17.643 0 0 1-4.9-24.448c1.573-2.364 38.361-56.667 98.515-59.217 3.773-2.377 12.212-9.08 16.463-23.55 14.201-48.396-31.097-126.28-59.367-168.394-36.267-54.033-73.387-83.332-107.347-84.724-25.716-1.087-44.548 14.28-51.785 21.346-4.666 15.712-25.482 36.558-65.91 67.178a17.678 17.678 0 0 1-21.342-28.18c39.532-29.936 50.013-43.59 52.523-47.58a17.63 17.63 0 0 1 3.826-10.007c1.312-1.644 32.68-40.142 84.137-38.079 46.332 1.91 91.834 35.666 135.25 100.34 57.153 85.158 78.464 152.443 63.335 199.994-10.856 34.129-36.254 44.658-39.113 45.75a17.7 17.7 0 0 1-6.287 1.157c-43.593 0-73.201 43.151-73.493 43.584a17.71 17.71 0 0 1-14.705 7.812M132.787 330.835"/><path fill="#FFF" d="M104.12 371.419a18 18 0 0 0-1.45 1.06L41.483 422.32a17.674 17.674 0 0 0-3.15 24.072l172.67 238.32a17.68 17.68 0 0 0 24.006 4.41l54.586-35.794c21.346-14.042 35.706-36.43 41.543-64.762 8.982-43.54-3.588-96.796-33.608-142.421-51.152-77.73-137.91-111.25-193.41-74.726"/><path fill="#6E6E96" d="M156.12 338.726c-22.551 0-43.892 6.2-61.712 17.93a35 35 0 0 0-2.894 2.117l-61.197 49.845a35.35 35.35 0 0 0-6.3 48.149l172.67 238.316a35.335 35.335 0 0 0 48.007 8.819l54.577-35.79.053-.026c17.188-11.32 30.492-26.993 39.564-46.629 8.134-17.585 12.424-37.535 12.773-59.283.646-41.516-13.343-86.191-39.373-125.759v-.004c-19.061-28.964-43.425-53.358-70.457-70.537-27.96-17.758-57.6-27.148-85.71-27.148m-103.476 97.3 61.192-49.84c12.491-8.219 26.935-12.112 42.285-12.112 42.917 0 92.855 30.448 126.634 81.778 22.384 34.031 33.545 70.948 33.576 103.45.027 34.062-12.16 63.278-36.44 79.26l-54.576 35.798z"/><path fill="#D5D5E8" d="M218.758 505.772c-14.833 0-43.96 35.34-65.478 80.13l72.043 88.445 54.578-35.795c47.437-31.207 48.727-113.003 2.858-182.7-.008-.004-23.48 49.92-64.001 49.92"/><path fill="#D5D5E8" d="M47.96 417.455c-14.77 9.716-24.58 24.607-28.397 43.063a96.8 96.8 0 0 0-1.909 19.538c0 46.262 28.901 97.76 47.786 126.476 31.58 47.989 72.72 80.27 112.875 88.555 22.822 4.706 44 1.197 61.25-10.158 46.606-30.673 41.621-101.294-13-184.291-32.467-49.346-76.926-83.987-118.946-92.656-22.543-4.648-43.173-1.374-59.659 9.473"/><path fill="#FFF" d="M228.23 498.314c-32.466-49.346-76.925-83.987-118.945-92.656-22.552-4.648-43.173-1.374-59.668 9.473-14.77 9.716-24.58 24.607-28.397 43.063a96.8 96.8 0 0 0-1.909 19.538c0 46.253 28.901 97.76 47.786 126.48 31.579 47.985 72.72 80.266 112.875 88.55 22.821 4.707 44 1.198 61.25-10.157 46.614-30.682 41.63-101.294-12.991-184.291m2.992 180.65c-13.384 9.137-29.812 11.97-47.512 8.183-31.15-6.672-63.056-32.648-87.557-71.275-14.652-23.108-37.071-64.563-37.071-101.789 0-5.35.46-10.613 1.48-15.725 2.956-14.855 10.57-26.838 22.022-34.659 12.796-8.73 28.795-11.364 46.288-7.626 32.59 6.977 67.086 34.857 92.267 74.57 42.369 66.79 46.235 123.64 10.083 148.321"/><path fill="#6E6E96" d="M88.182 388.258c-18.575 0-35.374 4.856-49.947 14.44C20.38 414.441-8.048 443.245 2.15 504.18c5.624 33.62 22.406 72.375 48.528 112.071 19.154 29.114 42.36 53.552 67.108 70.665 26.365 18.235 53.954 27.881 79.79 27.881 18.818 0 36.695-5.227 51.704-15.098 16.101-10.587 27.952-25.888 34.28-44.247 5.465-15.853 6.888-33.925 4.228-53.716-4.44-33.054-20.507-71.372-46.456-110.807v.005c-19.574-29.737-43.73-55.028-69.879-73.135-27.907-19.327-56.703-29.542-83.27-29.542m-52.814 91.414c.009-20.656 6.901-37.323 22.3-47.446 8.886-5.845 19.256-8.62 30.51-8.62 38.882 0 88.308 33.09 123.625 86.757 26.688 40.553 41.887 79.498 41.94 110.047.036 21.584-7.494 38.967-23.89 49.761-9.514 6.274-20.485 9.288-32.278 9.288-37.248 0-82.78-30.055-117.368-82.613-27.828-42.325-44.852-84.685-44.84-117.174"/><path fill="#6E6E96" d="M251.375 552.763c1.93 31.331-8.484 56.243-31.513 71.398-17.25 11.356-38.428 14.869-61.25 10.158-40.154-8.284-81.286-40.561-112.874-88.55-10.556-16.053-24.227-39.22-34.252-64.608 2.859 44.203 29.64 91.741 47.507 118.897 31.58 47.99 72.72 80.271 112.875 88.556 22.822 4.706 44 1.197 61.25-10.163 35.14-23.122 40.937-68.963 18.257-125.688m46.147-106.627 54.268-49.222s104.722 140.769 36.421 209.065l-53.84 3.226c.01 0 30.126-140.562-36.85-163.07" opacity=".2"/></svg>