<svg xmlns="http://www.w3.org/2000/svg" width="33.688" height="32" class="icon" viewBox="0 0 1078 1024"><path fill="#E05757" d="m331.013 38.093-117.556 50.79a17.4 17.4 0 0 0-10.494 15.972v189.982a17.384 17.384 0 0 0 25.956 15.124s76.89-43.566 90.71-51.408c3.595 1.882 99.238 51.673 99.238 51.673a17.392 17.392 0 0 0 25.413-14.971l4.89-186.897a17.38 17.38 0 0 0-8.733-15.536l-93.874-53.85a17.38 17.38 0 0 0-15.55-.879m-29.112 200.676c0 2.191.479 3.939 1.044 5.612a17.3 17.3 0 0 1-1.044-5.612m1.935 7.747c.721 1.36 1.504 2.682 2.53 3.73a16.7 16.7 0 0 1-2.53-3.73m6.699 7.277a17.3 17.3 0 0 1-4.078-3.413c1.539 1.544 3.343 2.774 5.203 3.895-.369-.2-.769-.274-1.125-.482"/><path fill="#6E6E96" d="M337.908 19.28a34.7 34.7 0 0 0-13.789 2.85L206.558 72.927a34.78 34.78 0 0 0-20.983 31.933v189.987a34.76 34.76 0 0 0 17.27 30.038 34.7 34.7 0 0 0 34.646.218l82.494-46.757 90.862 47.309a34.86 34.86 0 0 0 33.707-.883 34.8 34.8 0 0 0 17.118-29.064l4.895-186.883a34.77 34.77 0 0 0-17.462-31.073l-93.887-53.86a34.8 34.8 0 0 0-17.31-4.612M220.35 104.85l117.561-50.803 93.892 53.86-4.895 186.887-107.624-56.02-98.934 56.063z"/><path fill="#943939" d="M220.351 294.829V104.846l117.557-50.79 46.304 147.925z"/><path fill="#FF7878" d="m220.351 104.846 98.939 52.56 112.51-49.5-93.892-53.85z"/><path fill="#C44C4C" d="M319.29 157.406v81.363l107.615 56.034 4.894-186.897z"/><path fill="#EDD1B0" d="M103.96 414.355c-18.397 15.27-33.46 47.317-33.46 71.226v291.495c0 23.908 18.388 50.147 40.862 58.302l453.535 164.657c22.474 8.155 57.72 4.92 78.338-7.19l313.699-184.37c20.61-12.107 37.476-41.576 37.476-65.485V465.132c0-23.908-11.06-59.606-24.565-79.333L766.712 89.314c-13.506-19.722-42.731-28.595-64.936-19.718L390.42 194.121c-22.192 8.877-55.42 28.634-73.817 43.896z"/><path fill="#6E6E96" d="M593.992 1021.922c-12.92 0-25.03-1.913-35.024-5.542l-453.54-164.662c-29.338-10.641-52.316-43.43-52.316-74.647V485.577c0-28.947 17.458-66.11 39.745-84.607l212.644-176.337c19.935-16.54 54.403-37.032 78.46-46.652l311.35-124.526c7.786-3.112 16.215-4.69 25.06-4.69 24.449 0 47.705 11.776 60.681 30.73l203.133 296.484c15.484 22.613 27.612 61.776 27.612 89.162v277.854c0 29.96-20.231 65.305-46.057 80.48l-313.7 184.367c-15.24 8.95-36.401 14.08-58.05 14.08M720.37 83.537c-4.403 0-8.489.743-12.15 2.204L396.876 210.266c-20.5 8.203-52.181 27.039-69.174 41.132l-212.64 176.341c-14.47 12.011-27.168 39.041-27.168 57.842v291.495c0 16.666 13.74 36.276 29.407 41.957l453.54 164.661c6.142 2.23 14.366 3.456 23.152 3.456 15.184.005 30.68-3.56 40.44-9.298l313.7-184.366c15.392-9.047 28.894-32.642 28.894-50.496V465.132c0-20.283-10.055-52.764-21.527-69.509L752.367 99.143c-6.395-9.338-19.249-15.606-31.994-15.606"/><path fill="#6E6E96" d="M604.22 614.184c-23.46 13.65-34.376 45.891-24.248 71.647 0 0 33.255 84.576 119.222 43.831 85.954-40.749 278.675-162.9 278.675-162.9 22.948-14.55 41.736-49.187 41.736-76.982v-66.705c0-27.8-19.2-39.371-42.662-25.713z" opacity=".18"/><path fill="#C2A07C" d="M427.552 935.864V715.852c0-28.13-21.413-59.567-47.578-69.874l-101.516-40.384c-26.174-10.307-47.583 4.277-47.583 32.398v224.564"/><path fill="#6E6E96" d="M444.94 935.864h-34.776V715.852c0-20.931-17.088-46.026-36.563-53.699l-101.568-40.406c-7.086-2.795-13.28-2.8-17.393.005-4.112 2.804-6.377 8.568-6.377 16.236V862.55h-34.776V637.988c0-19.249 7.868-35.641 21.579-44.983 13.715-9.333 31.85-10.655 49.765-3.595l101.568 40.405c32.803 12.924 58.542 50.722 58.542 86.033z"/><path fill="#E05757" d="M725.407 16.493c-24.922 0-62.558 7.337-85.65 16.71L354.805 148.795c-22.826 9.259-55.342 29.081-74.043 45.135L53.529 389.085c-20.761 17.836-37.036 53.247-37.036 80.616v2.752c0 17.427 6.855 30.699 18.805 36.38 11.954 5.695 26.56 2.656 40.106-8.324l225.763-183.263c4.968-4.025 11.063-5.803 17.17-4.99 6.117.804 11.546 4.086 15.306 9.272L581.842 663.87c18.075 24.917 54.694 33.064 81.624 18.153l371.05-205.506c13.758-7.62 23.19-19.97 26.569-34.754 3.368-14.797.226-30.008-8.864-42.836L810.113 57.12c-16.136-22.774-50.626-40.61-78.525-40.61h-6.177v-.017z"/><path fill="#6E6E96" d="M731.575 0h-6.177c-26.73 0-67.088 7.872-91.853 17.923L348.597 133.515c-24.217 9.824-58.741 30.864-78.585 47.904L42.783 376.575c-11.854 10.18-22.717 25.217-30.577 42.344C4.338 436.051 0 454.087 0 469.706v2.751c0 13.946 3.339 25.887 9.898 35.49 8.79 12.85 22.696 20.217 38.128 20.217 8.89 0 22.665-2.582 37.767-14.84l225.768-183.258c1.23-.996 2.543-1.504 3.903-1.504 1.326 0 3.226.452 4.812 2.643l248.198 342.35c14.763 20.37 39.12 32.516 65.14 32.516 13.368 0 26.452-3.33 37.811-9.616l371.063-205.519c17.658-9.776 30.294-26.36 34.668-45.522 4.364-19.148.182-39.575-11.494-56.05L823.554 47.557c-9.329-13.168-23.8-25.248-40.71-33.99C765.93 4.821 747.72 0 731.575 0M32.99 469.706c0-22.679 14.08-53.321 31.285-68.101L291.5 206.449c17.21-14.775 48.474-33.841 69.492-42.366L645.947 48.478c21.018-8.529 56.777-15.493 79.442-15.493h6.177c22.688 0 51.965 15.132 65.076 33.65l242.107 341.812c4.813 6.79 7.13 14.35 7.138 21.735.009 12.724-6.803 24.944-19.366 31.903L655.467 667.6c-6.725 3.712-14.271 5.486-21.83 5.486-14.79 0-29.634-6.747-38.446-18.901L346.993 311.847c-7.742-10.676-19.544-16.266-31.525-16.266-8.615 0-17.331 2.9-24.7 8.876L65.007 487.707c-6.238 5.055-12.055 7.472-16.989 7.472-9.011 0-15.036-8.06-15.036-22.722z"/><path fill="#FF7878" d="m581.555 249.533 80.42 39.51 97.795-37.898-83.82-39.505z"/><path fill="#C44C4C" d="m661.975 289.043 15.38 156.463 152.037-79.612-69.622-114.749z"/><path fill="#943939" d="m581.555 249.533-5.778 122.3 101.578 73.673-15.38-156.463z"/><path fill="#FF7878" d="m679.898 282.1-2.543 163.406-15.38-156.463-80.42-39.51z"/><path fill="#FF7D7D" d="M660.545 643.73S464.663 355.07 429.617 297.328c-35.05-57.724 0-78.338 0-78.338L783.735 53.26c-14.797-11.898-35.293-20.27-52.151-20.27h-6.177c-22.679 0-58.424 6.972-79.442 15.492L360.999 164.083c-21.013 8.525-52.281 27.59-69.491 42.37L64.28 401.602c-17.206 14.775-31.286 45.422-31.286 68.105v2.751c0 22.683 14.402 29.543 32.02 15.25l225.759-183.263c17.61-14.297 42.9-10.967 56.225 7.39L595.19 654.181c13.31 18.366 40.45 24.386 60.28 13.415l6.782-3.752c.052-11.954-1.708-20.114-1.708-20.114"/><path fill="#6E6E96" d="M605.755 1024a17.39 17.39 0 0 1-17.389-17.388V862.286a17.388 17.388 0 0 1 34.777 0v144.326A17.39 17.39 0 0 1 605.755 1024"/><path fill="#6E6E96" d="M268.664 688.144c0-28.125 21.418-42.71 47.578-32.394l101.512 40.38c6.855 2.699 13.363 6.88 19.28 12.045-7.139-21.43-24.2-41.358-44.014-49.16L291.503 618.63c-26.173-10.307-47.582 4.277-47.582 32.398v224.563l24.743 8.673z" opacity=".44"/><path fill="#6E6E96" d="M378.553 842.555a17.39 17.39 0 0 1-17.389-17.388v-57.725a17.388 17.388 0 0 1 34.777 0v57.725a17.39 17.39 0 0 1-17.388 17.388"/><path fill="#6E6E96" d="m80.82 570.683 280.384-221.699-36.95-36.95-257.41 194.274z" opacity=".15"/></svg>